PathFileType	4	(X/Y/Z)	C:\Users\Graham\Documents\MATLAB\MOtoNMS_v2_2\MyData\ElaboratedData\S8\22-05-17\staticElaborations\Static1\Static1\\Static1.trc
DataRate	CameraRate	NumFrames	NumMarkers	Units	OrigDataRate	DataStartFrame
100	100	6	38	mm	100	2
Frame#	Time	V_Sacral			R_ASIS			L_ASIS			R_Knee_Lat			R_Knee_Med			R_Thigh_Upper			R_Thigh_Front			R_Thigh_Rear			L_Knee_Lat			L_Knee_Med			L_Thigh_Upper			L_Thigh_Front			L_Thigh_Rear			R_Ankle_Lat			R_Ankle_Med			R_Shank_Upper			R_Shank_Front			R_Shank_Rear			L_Ankle_Lat			L_Ankle_Med			L_Shank_Upper			L_Shank_Front			L_Shank_Rear			R_Heel			R_MTP1			R_MTP5			L_Heel			L_MTP1			L_MTP5			Clavicle			R_Acromium			L_Acromium			LAJC			RAJC			LHJC			RHJC			LKJC			RKJC		
		X1	Y1	Z1	X2	Y2	Z2	X3	Y3	Z3	X4	Y4	Z4	X5	Y5	Z5	X6	Y6	Z6	X7	Y7	Z7	X8	Y8	Z8	X9	Y9	Z9	X10	Y10	Z10	X11	Y11	Z11	X12	Y12	Z12	X13	Y13	Z13	X14	Y14	Z14	X15	Y15	Z15	X16	Y16	Z16	X17	Y17	Z17	X18	Y18	Z18	X19	Y19	Z19	X20	Y20	Z20	X21	Y21	Z21	X22	Y22	Z22	X23	Y23	Z23	X24	Y24	Z24	X25	Y25	Z25	X26	Y26	Z26	X27	Y27	Z27	X28	Y28	Z28	X29	Y29	Z29	X30	Y30	Z30	X31	Y31	Z31	X32	Y32	Z32	X33	Y33	Z33	X34	Y34	Z34	X35	Y35	Z35	X36	Y36	Z36	X37	Y37	Z37	X38	Y38	Z38	

56	0.550000	-246.243384	1018.056344	-11.025570	-46.764578	992.822390	135.398976	-23.002065	993.260740	-95.004838	-130.112860	526.249572	177.346388	-145.297795	528.640532	40.990610	-13.976558	818.087100	138.023115	-28.594441	704.136849	89.370526	-46.715884	703.567862	160.889199	-109.269795	537.171836	-143.525462	-146.398770	530.747427	-9.175140	4.335063	811.208429	-63.018680	-20.179731	688.965735	-37.506973	-15.454759	696.199669	-112.781227	-183.018445	92.326607	141.964802	-171.253360	100.633855	66.187607	-111.507857	333.060584	129.823431	-145.759303	225.495019	84.500992	-140.564639	218.976044	157.238215	-177.724250	88.378505	-113.441724	-164.492313	99.766513	-36.285444	-109.303163	327.509838	-97.001620	-140.872722	220.816764	-53.633971	-127.766651	210.620079	-126.407677	-241.152049	51.513521	95.707508	-28.195334	63.840031	82.296010	-47.233549	51.582885	158.286978	-238.608270	57.805631	-74.794239	-26.698452	66.256072	-59.949176	-42.837535	52.360277	-135.038550	-72.425527	1389.542778	22.264341	-160.087001	1437.773101	175.556321	-142.114379	1448.879975	-159.871384	-171.108281	94.072509	-74.863584	-177.135902	96.480231	104.076204	-96.366801	920.514473	-70.462974	-113.547872	920.197532	96.126484	-127.834283	533.959632	-76.350301	-137.705327	527.445052	109.168499	
57	0.560000	-246.224478	1018.075971	-11.056118	-46.746334	992.832136	135.372227	-22.977203	993.259895	-95.038339	-130.094840	526.255471	177.308984	-145.275819	528.639751	40.955693	-13.980680	818.091127	137.992008	-28.588469	704.142141	89.339858	-46.801345	703.525625	160.801298	-109.261845	537.169174	-143.539038	-146.391451	530.752051	-9.185619	4.343920	811.207669	-63.032382	-20.171919	688.968094	-37.515241	-15.442634	696.192834	-112.791619	-183.015941	92.331049	141.958366	-171.250339	100.634209	66.181162	-111.493015	333.057554	129.802271	-145.748944	225.491323	84.479644	-140.552995	218.980307	157.219609	-177.721699	88.379939	-113.440437	-164.488439	99.769184	-36.286853	-109.295440	327.509187	-97.010366	-140.863629	220.816561	-53.635793	-127.767026	210.620246	-126.411267	-241.150640	51.514358	95.705659	-28.194362	63.838101	82.295010	-47.233625	51.582162	158.287987	-238.605044	57.811458	-74.795484	-26.694837	66.250660	-59.948157	-42.834435	52.358028	-135.037120	-72.400403	1389.552181	22.214531	-160.029533	1437.834301	175.501135	-142.073095	1448.882151	-159.928225	-171.105069	94.074561	-74.863645	-177.133140	96.482629	104.069764	-96.349444	920.517989	-70.494436	-113.535252	920.208706	96.099441	-127.826648	533.960612	-76.362329	-137.685329	527.447611	109.132339	
58	0.570000	-246.204073	1018.092531	-11.087123	-46.723246	992.842407	135.346242	-22.950492	993.259345	-95.072072	-130.078923	526.260436	177.274801	-145.251928	528.637833	40.922928	-13.979674	818.093834	137.964683	-28.578265	704.144849	89.313172	-46.892663	703.479865	160.710620	-109.256634	537.165975	-143.555148	-146.387240	530.755551	-9.198865	4.354301	811.205490	-63.048627	-20.164246	688.968255	-37.526077	-15.431449	696.184784	-112.805333	-183.013825	92.335462	141.952656	-171.246803	100.634121	66.175338	-111.479464	333.053769	129.783567	-145.738665	225.487561	84.460466	-140.542536	218.983916	157.202576	-177.718921	88.381115	-113.440618	-164.484732	99.771845	-36.288552	-109.290022	327.508333	-97.020156	-140.856260	220.816106	-53.638593	-127.767091	210.620648	-126.418544	-241.148974	51.515099	95.703661	-28.193211	63.836094	82.294379	-47.233664	51.581265	158.289635	-238.602058	57.816760	-74.796363	-26.691622	66.245379	-59.946799	-42.831710	52.355298	-135.035527	-72.382333	1389.559663	22.166375	-159.982376	1437.886819	175.447564	-142.037547	1448.883272	-159.983179	-171.101826	94.076480	-74.864585	-177.130314	96.484792	104.063997	-96.329084	920.520471	-70.524883	-113.517459	920.219013	96.074091	-127.821937	533.960763	-76.377007	-137.665425	527.449135	109.098865	
59	0.580000	-246.182439	1018.105432	-11.118696	-46.696107	992.852709	135.320568	-22.922554	993.258906	-95.106166	-130.065190	526.264342	177.244329	-145.226936	528.634894	40.892894	-13.973498	818.094988	137.940867	-28.563865	704.144924	89.290648	-46.977327	703.435856	160.625532	-109.254301	537.162306	-143.573988	-146.386021	530.757934	-9.215228	4.365584	811.201802	-63.067706	-20.156919	688.965967	-37.540492	-15.421587	696.175842	-112.823338	-183.012076	92.339809	141.947712	-171.242913	100.633539	66.170214	-111.467435	333.049512	129.767276	-145.728751	225.483941	84.443833	-140.533708	218.986790	157.187464	-177.716194	88.382115	-113.442649	-164.481270	99.774481	-36.290665	-109.286845	327.507277	-97.031274	-140.850758	220.815490	-53.642810	-127.766573	210.621543	-126.430742	-241.147177	51.515964	95.701552	-28.191869	63.833984	82.294137	-47.233614	51.580271	158.291613	-238.599396	57.821295	-74.796892	-26.688881	66.240398	-59.945325	-42.829428	52.352131	-135.034040	-72.370599	1389.565373	22.119898	-159.946281	1437.930515	175.395739	-142.008403	1448.883017	-160.036225	-171.098732	94.078298	-74.866657	-177.127495	96.486674	104.058963	-96.306150	920.521700	-70.554634	-113.495048	920.228009	96.049899	-127.820161	533.960120	-76.394608	-137.646063	527.449618	109.068611	
60	0.590000	-246.159916	1018.114358	-11.150897	-46.665827	992.862564	135.294741	-22.894071	993.258445	-95.140658	-130.053411	526.267124	177.217716	-145.201638	528.631142	40.865970	-13.962483	818.094421	137.919864	-28.545615	704.142519	89.272032	-47.042370	703.398856	160.554593	-109.254629	537.158266	-143.595512	-146.387336	530.759311	-9.234745	4.377202	811.196706	-63.089670	-20.149983	688.961268	-37.559174	-15.413148	696.166410	-112.846236	-183.010638	92.344014	141.943487	-171.238935	100.632471	66.165765	-111.456978	333.045091	129.753172	-145.719458	225.480628	84.429892	-140.526714	218.988920	157.174491	-177.713781	88.383058	-113.446801	-164.478152	99.777071	-36.293271	-109.285630	327.506044	-97.043881	-140.847101	220.814789	-53.648763	-127.765250	210.623156	-126.448645	-241.145395	51.517089	95.699375	-28.190369	63.831758	82.294220	-47.233454	51.579275	158.293582	-238.597205	57.824945	-74.797127	-26.686658	66.235877	-59.943976	-42.827578	52.348646	-135.032904	-72.364313	1389.569667	22.074987	-159.921354	1437.966071	175.345620	-141.986145	1448.881058	-160.087467	-171.095967	94.080065	-74.870036	-177.124786	96.488243	104.054626	-96.281220	920.521611	-70.583976	-113.468765	920.235380	96.026294	-127.820983	533.958789	-76.415129	-137.627524	527.449133	109.041843	
61	0.600000	-246.136902	1018.119302	-11.183703	-46.633317	992.871569	135.268340	-22.865731	993.257908	-95.175496	-130.043075	526.268794	177.194783	-145.176714	528.626851	40.842290	-13.947236	818.092063	137.900636	-28.524154	704.137967	89.256657	-47.075718	703.373601	160.505622	-109.257095	537.153984	-143.619460	-146.390432	530.759886	-9.257152	4.388759	811.190502	-63.114349	-20.143323	688.954475	-37.582404	-15.405943	696.156926	-112.874186	-183.009435	92.347982	141.939875	-171.235190	100.630993	66.161884	-111.447956	333.040803	129.740898	-145.710989	225.477719	84.418548	-140.521446	218.990387	157.163740	-177.711897	88.384075	-113.453183	-164.475490	99.779593	-36.296403	-109.285947	327.504673	-97.057993	-140.845095	220.814055	-53.656597	-127.763028	210.625609	-126.472353	-241.143754	51.518503	95.697178	-28.188787	63.829424	82.294485	-47.233180	51.578375	158.295228	-238.595631	57.827700	-74.797144	-26.684966	66.231955	-59.942984	-42.826084	52.345019	-135.032294	-72.362491	1389.573070	22.031394	-159.907065	1437.994727	175.297047	-141.971004	1448.877123	-160.137109	-171.093693	94.081834	-74.874793	-177.122313	96.489488	104.050879	-96.254967	920.520309	-70.613125	-113.439445	920.240977	96.002748	-127.823763	533.956935	-76.438306	-137.609894	527.447823	109.018536	
